<svg xmlns="http://www.w3.org/2000/svg"
shape-rendering="geometricPrecision"
width="4000" height="4000" viewBox="0 0 1024 1024"><rect width="100%" height="100%" fill="#FEFEFE" />
  <metadata>null</metadata>

<path d="
M 186.982 554.611
C 190.283 521.952 220.788 500.367 249.938 491.351
C 254.969 489.795 260.13 488.555 265.313 487.629
C 273.414 486.182 281.557 485.197 289.775 484.737
C 292.421 484.59 295.061 484.496 297.709 484.407
C 298.542 484.379 299.987 484.681 300.71 484.306
C 312.552 454.069 324.397 423.802 336.754 393.773
C 339.953 385.999 343.296 378.284 346.355 370.454
C 348.235 365.642 349.742 359.865 352.479 355.496
C 353.498 355.248 355.467 354.925 356.259 355.729
C 357.985 358.666 358.933 362.241 360.247 365.389
C 362.818 371.55 365.382 377.72 367.886 383.907
C 376.53 405.26 385.215 426.641 394.16 447.87
C 398.137 457.311 401.72 466.915 405.648 476.372
C 407.143 479.973 408.459 483.633 409.919 487.243
C 410.569 488.85 411.697 490.703 411.905 492.431
C 410.67 493.442 408.895 494.101 407.444 494.757
C 399.306 498.436 391.469 497.185 383.399 494.055
C 381.096 493.162 377.439 492.49 375.681 490.679
C 374.72 489.688 374.483 488.001 374.002 486.745
C 372.72 483.399 371.449 480.046 370.123 476.718
C 365.435 464.958 360.502 453.271 355.987 441.443
C 353.024 433.681 349.942 425.958 346.918 418.218
C 345.87 415.533 344.776 412.864 343.783 410.158
C 343.472 409.31 342.809 406.971 342.211 406.416
C 342.064 406.279 342.093 406.8 342.034 406.991
C 340.831 412.568 337.783 418.084 335.789 423.438
C 330.487 437.673 324.967 451.82 319.651 466.048
C 318.199 469.932 316.816 473.849 315.325 477.717
C 314.445 480 313.111 482.609 312.763 485.03
C 330.633 485.746 348.786 489.723 365.918 494.702
C 375.976 497.625 385.674 501.919 396.125 503.283
C 402.661 504.137 409.202 503.947 415.555 502.108
C 417.729 501.479 419.79 500.557 421.73 499.399
C 422.562 498.902 424.036 497.849 424.992 497.982
C 423.745 501.242 420.149 504.485 417.509 506.641
C 410.482 512.379 403.182 517.128 394.207 519.07
C 381.073 521.913 368.018 518.058 355.422 514.546
C 344.432 511.482 333.528 508.431 322.354 506.09
C 317.05 504.978 310.92 503.276 305.478 503.432
C 302.531 509.213 300.818 515.678 298.524 521.741
C 296.995 525.78 295.376 529.806 293.975 533.891
C 293.089 536.473 292.142 539.07 291.117 541.6
C 290.226 543.8 289.468 546.08 288.666 548.316
C 285.1 558.243 279.293 571.26 288.129 580.252
C 289.369 581.514 290.882 582.483 292.449 583.286
C 294.546 584.36 296.889 585.118 299.202 585.564
C 302.366 586.174 306.171 586.878 309.39 586.781
C 309.263 587.805 309.004 589.686 309.28 590.664
C 305.261 590.808 301.056 590.394 297.003 590.363
C 283.426 590.257 269.774 589.946 256.202 590.32
C 253.334 590.399 250.337 590.343 247.518 590.941
C 243.863 591.716 240.399 593.26 236.798 594.241
C 233.029 595.267 229.053 595.526 225.161 595.507
C 213.154 595.45 200.556 589.728 193.475 579.87
C 188.345 572.727 186.205 563.313 186.982 554.611 Z
M 190.911 553.107
C 190.582 555.597 190.849 558.133 191.092 560.616
C 193.04 580.556 213.502 593.402 232.697 591.78
C 237.953 591.337 243.356 588.356 248.069 586.08
C 268.175 576.372 274.48 553.264 281.951 534.054
C 285.115 525.918 288.165 517.742 291.261 509.579
C 291.983 507.678 292.786 505.808 293.46 503.889
C 293.562 503.596 294.409 502.055 294.199 501.875
C 286.932 501.521 279.817 500.222 272.483 500.424
C 244.537 501.196 212.797 509.987 197.257 535.323
C 195.261 538.577 193.544 541.904 192.39 545.551
C 191.604 548.037 191.536 550.619 190.911 553.107 Z"
opacity="1" fill="rgb(1,1,1)" fill-rule="evenodd" />
<path d="
M 379.906 587.379
C 384.865 586.939 389.885 586.913 394.675 585.388
C 400.619 583.497 405.128 578.514 405.216 572.108
C 405.25 569.605 404.493 567.244 403.698 564.907
C 400.409 555.242 396.551 545.756 392.996 536.184
C 391.569 532.344 389.422 528.373 388.604 524.357
C 394.898 522.801 401.208 522.162 407.172 519.35
C 409.96 518.036 412.644 516.468 415.243 514.812
C 416.437 514.052 417.655 512.607 418.98 512.169
C 419.257 513.961 419.043 515.688 419.426 517.522
C 422.837 533.823 431.402 548.801 439.673 563.008
C 443.757 570.024 448.03 578.015 455.066 582.468
C 461.136 586.31 467.946 585.852 474.586 587.624
C 474.721 588.795 474.827 589.969 474.812 591.149
C 471.599 590.486 467.535 590.949 464.238 590.93
C 456.994 590.889 449.751 590.905 442.507 590.906
C 421.611 590.909 400.632 590.476 379.754 591.176
C 379.468 589.978 379.566 588.56 379.906 587.379 Z"
opacity="1" fill="rgb(1,0,1)" fill-rule="evenodd" />
<path d="
M 427.005 511.61
C 428.799 495.441 439.722 483.077 453.053 474.611
C 456.483 472.433 460.116 470.532 463.777 468.778
C 465 468.193 467.733 467.507 468.575 466.524
C 467.011 464.774 465.997 462.209 464.894 460.141
C 461.689 454.129 459.052 447.847 456.98 441.361
C 454.678 434.154 453.928 426.011 455.344 418.562
C 456.014 415.038 457.253 411.611 458.834 408.399
C 468.257 389.254 491.115 382.831 510.847 387.69
C 523.123 390.712 535.386 398.731 536.226 412.486
C 536.405 415.42 535.936 418.406 535.231 421.248
C 534.39 424.637 532.858 427.815 531.041 430.78
C 528.361 435.152 524.624 439.147 520.696 442.414
C 515.843 446.45 510.828 449.983 505.436 453.257
C 503.083 454.686 500.714 456.44 498.228 457.602
C 498.987 459.866 501.076 462.206 502.471 464.124
C 505.398 468.147 508.315 472.171 511.323 476.134
C 517.866 484.753 524.636 493.171 531.477 501.554
C 535.321 506.264 539.232 511.309 543.647 515.494
C 544.431 514.81 544.885 513.596 545.421 512.711
C 546.889 510.288 548.105 507.685 549.399 505.165
C 553.097 497.965 556.448 490.438 558.84 482.696
C 560.305 477.952 560.671 472.565 557.767 468.26
C 555.431 464.795 551.093 462.225 547.092 461.188
C 544.988 460.644 541.796 460.849 540.052 459.592
C 540.189 458.211 540.692 457.007 541.601 455.961
C 557.567 455.885 575.271 460.093 590.042 452.121
C 597.272 448.219 603.782 442.343 610.068 437.1
C 611.51 435.897 612.986 434.563 614.579 433.565
C 615.291 433.119 616.175 432.697 616.817 433.304
C 616.514 434.922 615.297 436.299 614.291 437.556
C 608.253 445.567 599.639 452.029 591.618 457.914
C 587.708 460.782 583.47 462.948 580.193 466.609
C 573.87 473.675 569.826 483.374 565.69 491.808
C 560.633 502.12 554.873 512.151 549.956 522.509
C 550.574 523.676 551.855 524.686 552.766 525.657
C 554.813 527.839 556.953 529.939 559.044 532.079
C 567.588 540.824 576.93 550.435 589.87 550.977
C 592.233 551.076 594.877 551.061 597.162 550.381
C 597.691 520.683 596.521 490.939 597.068 461.238
C 599.93 458.54 603.443 456.526 606.549 454.123
C 613.12 449.038 620.048 443.186 625.579 436.975
C 626.389 436.066 626.303 434.658 626.359 433.496
C 626.542 429.744 624.926 426.031 620.756 425.508
C 614.617 424.737 608.804 429.46 604.323 433.067
C 602.627 434.432 600.834 435.715 599.199 437.15
C 598.774 437.522 597.709 438.73 597.201 438.245
C 596.841 433.871 597.097 429.394 597.09 425.004
C 597.075 414.508 597.31 403.985 596.978 393.497
C 596.722 385.414 596.514 377.242 589.519 371.809
C 582.271 366.179 573.905 366.332 565.305 365.17
C 565.184 363.916 565.401 362.655 565.457 361.403
C 570.311 360.839 575.513 361.457 580.408 361.441
C 591.939 361.404 603.47 361.6 615.004 361.498
C 626.835 361.393 638.673 361.35 650.508 361.331
C 658.986 361.318 667.557 360.991 675.995 361.983
C 688.697 363.477 701.88 368.266 712.349 375.678
C 718.21 379.828 723.338 384.688 727.396 390.626
C 730.474 395.132 732.6 400.11 734.123 405.333
C 739.396 423.424 734.403 443.794 721.602 457.521
C 715.744 463.803 707.979 468.391 700.442 472.336
C 694.216 475.594 686.752 479.264 679.771 480.391
C 680.929 483.005 683.113 485.408 684.884 487.63
C 687.641 491.088 690.389 494.567 693.092 498.068
C 701.401 508.832 709.656 519.69 718.134 530.321
C 727.242 541.744 735.914 553.48 745.269 564.713
C 751.759 572.507 759.184 580.511 768.634 584.645
C 778.035 588.758 788.444 587.886 798.048 585.113
C 821.702 578.282 840.444 556.984 842.774 532.174
C 843.347 526.068 842.988 520.047 841.922 514.023
C 841.182 509.838 839.847 505.774 838.281 501.831
C 828.317 476.744 801.29 463.416 775.72 460.804
C 756.683 458.859 738.487 463.826 720.93 470.765
C 715.875 472.763 711 475.5 706.309 478.224
C 703.993 479.568 701.371 482.034 698.659 482.381
C 697.98 481.306 699.918 480.123 700.624 479.557
C 703.486 477.259 706.469 475.246 709.55 473.245
C 722.311 464.956 736.168 459.321 751.061 456.18
C 780.688 449.93 815.062 456.966 835.44 480.713
C 840.137 486.187 844.618 492.588 846.989 499.468
C 848.843 504.85 850.581 509.992 851.274 515.691
C 852.268 523.864 851.674 532.072 849.928 540.099
C 848.012 548.91 844.417 557.296 839.311 564.739
C 828.844 579.997 811.319 590.936 793.316 594.798
C 781.66 597.299 769.674 597.191 757.894 595.716
C 746.038 594.232 733.444 591.091 723.523 584.145
C 715.804 578.74 710.302 570.177 704.726 562.734
C 696.196 551.347 687.466 540.088 678.794 528.809
C 670.617 518.173 662.495 507.486 654.352 496.827
C 651.918 493.641 649.453 490.484 646.822 487.454
C 645.827 486.309 644.471 484.444 643.037 483.832
C 642.331 483.531 641.426 483.628 640.671 483.525
C 637.637 483.11 634.094 483.129 631.066 483.569
C 630.562 494.341 630.951 505.23 630.945 516.017
C 630.943 520.549 631.442 525.42 630.853 529.912
C 629.933 531.245 628.332 532.197 627.144 533.286
C 623.917 536.245 620.46 538.925 617.16 541.794
C 614.472 544.131 611.724 546.387 608.942 548.613
C 596.082 558.9 578.905 572.584 561.279 566.726
C 553.007 563.976 545.317 559.18 538.918 553.253
C 537.01 551.486 535.139 549.689 533.285 547.866
C 532.72 547.31 531.78 546.054 531.019 546.212
C 524.053 551.579 517.76 557.544 509.825 561.59
C 491.583 570.893 465.115 573.986 449.318 558.086
C 442.91 551.636 438.507 543.353 434.647 535.233
C 432.485 530.685 430.831 525.975 429.168 521.229
C 428.137 518.284 426.864 514.768 427.005 511.61 Z
M 450.048 503.626
C 450.449 510.145 451.019 516.269 453.654 522.37
C 462.558 542.989 485.875 558.34 508.397 550.697
C 514.939 548.477 520.795 544.951 526.009 540.465
C 510.764 525.052 497.31 507.644 484.304 490.349
C 479.926 484.527 476.096 478.292 471.632 472.545
C 461.746 475.428 454.346 485.14 451.396 494.557
C 450.456 497.555 450.604 500.6 450.048 503.626 Z
M 477.961 409.623
C 476.566 421.142 482.563 433.322 488.447 442.818
C 490.001 445.325 491.519 447.839 493.236 450.236
C 493.746 450.948 494.263 452.042 494.966 452.546
C 509.08 444.215 519.436 428.633 516.785 411.796
C 516.101 407.457 514.718 403.188 512.109 399.591
C 505.557 390.558 490.627 388.836 482.788 397.137
C 479.376 400.749 478.99 405.08 477.961 409.623 Z
M 631.007 373.11
C 630.412 382.133 631.15 391.435 631.139 400.5
C 631.109 425.034 631.587 449.619 631.041 474.148
C 647.492 475.841 667.111 474.874 680.466 463.763
C 696.189 450.682 700.659 428.785 697.053 409.277
C 695.458 400.65 692.099 392.32 686.083 385.815
C 675.804 374.702 660.298 370.953 645.662 370.927
C 640.881 370.918 635.717 371.085 631.1 372.393
C 631.069 372.632 631.038 372.871 631.007 373.11 Z"
opacity="1" fill="rgb(1,1,1)" fill-rule="evenodd" />
<path d="
M 565.294 587.266
C 573.624 586.227 581.608 586.945 588.898 581.931
C 590.324 580.95 591.411 579.633 592.519 578.324
C 593.736 576.887 594.615 575.136 595.387 573.431
C 596.718 570.492 596.919 567.438 597.602 564.336
C 598.525 562.966 600.251 562.22 601.587 561.301
C 604.168 559.526 606.686 557.668 609.208 555.811
C 616.696 550.297 623.408 543.775 630.751 538.097
C 631.238 538.087 631.081 539.261 631.072 539.686
C 631.032 541.614 631.123 543.524 631.103 545.448
C 631.026 553.288 630.447 561.798 631.98 569.508
C 632.713 573.195 634.39 577.232 637.124 579.893
C 643.167 585.775 653.719 586.942 661.777 586.712
C 662.353 587.694 661.739 589.648 661.815 590.782
C 659.085 591.573 654.874 590.755 651.997 590.745
C 644.831 590.718 637.664 590.729 630.498 590.731
C 616.166 590.734 601.835 590.747 587.504 590.858
C 582.459 590.896 577.415 590.901 572.37 590.922
C 570.011 590.931 567.643 591.267 565.294 590.986
C 564.978 589.751 565.165 588.519 565.294 587.266 Z"
opacity="1" fill="rgb(1,1,1)" fill-rule="evenodd" />

</svg>