<svg xmlns="http://www.w3.org/2000/svg"
viewBox="0 0 1024 1024">

<path d="
M 201.445 585.607
C 202.036 580.507 202.996 575.808 204.792 570.978
C 208.45 561.143 215.576 552.529 223.414 545.724
C 238.302 532.798 256.747 525.156 276.013 521.496
C 283.6 520.054 291.293 519.312 299 518.97
C 301.905 518.841 304.859 519.096 307.752 518.861
C 309.606 515.553 310.744 511.752 312.148 508.235
C 314.754 501.706 317.362 495.177 319.861 488.606
C 327.999 467.207 336.489 445.964 344.97 424.7
C 347.217 419.065 349.606 413.48 351.798 407.824
C 353.268 404.029 354.476 399.963 356.442 396.39
C 357.497 396.434 358.926 396.214 359.882 396.695
C 364.931 407.129 368.974 418.143 373.408 428.862
C 381.653 448.795 389.7 468.807 397.822 488.792
C 401.289 497.323 404.661 505.892 408.126 514.422
C 409.258 517.209 410.351 520.011 411.467 522.806
C 411.912 523.922 412.798 525.49 412.786 526.684
C 411.531 527.967 409.14 528.728 407.491 529.365
C 400.272 532.155 392.488 530.891 385.479 528.135
C 383.448 527.336 380.436 526.525 378.811 525.025
C 377.902 524.186 377.569 522.446 377.098 521.337
C 375.731 518.119 374.593 514.793 373.311 511.539
C 368.896 500.33 364.586 489.074 360.114 477.887
C 357.148 470.465 354.323 462.962 351.446 455.502
C 350.341 452.637 349.299 449.743 348.18 446.885
C 347.996 446.414 347.401 444.347 347.012 444.635
C 339.399 463.039 333.228 482.082 326.146 500.701
C 324.374 505.357 322.651 510.031 320.914 514.699
C 320.561 515.648 318.964 518.653 319.401 519.431
C 323.247 519.442 327.234 520.106 331.05 520.607
C 345.511 522.506 359.457 526.069 373.416 530.203
C 384.717 533.55 396.052 538.522 408.126 537.395
C 414.589 536.791 419.472 533.874 425.209 531.33
C 425.684 531.565 423.944 533.664 423.717 533.954
C 421.835 536.366 419.795 538.545 417.382 540.435
C 408.623 547.297 399.145 552.92 387.628 552.846
C 378.767 552.789 370.322 550.386 361.878 547.979
C 351.857 545.122 341.923 541.953 331.726 539.758
C 326.962 538.732 322.177 537.804 317.36 537.063
C 316.363 536.91 313.551 536.023 312.719 536.647
C 307.06 553.156 300.344 569.302 294.692 585.821
C 292.099 593.399 290.471 603.152 296.79 609.474
C 300.161 612.847 305.279 614.259 309.882 614.782
C 311.86 615.007 314.099 614.881 316.014 615.398
C 316.338 616.534 316.284 617.706 316.387 618.872
C 315.233 619.319 313.725 619.038 312.505 619.038
C 309.593 619.039 306.68 619.051 303.768 619.029
C 293.923 618.952 284.067 618.898 274.216 618.877
C 269.065 618.866 263.591 618.501 258.509 619.494
C 252.836 620.602 247.639 623.074 241.821 623.63
C 229.432 624.815 215.844 620.245 208.206 610.083
C 205.906 607.023 204.109 603.536 202.966 599.882
C 201.555 595.372 201.037 590.313 201.445 585.607 Z
M 205.412 582.598
C 205.061 584.615 205.16 586.744 205.185 588.786
C 205.428 608.296 225.189 621.524 243.597 620.365
C 248.079 620.082 252.276 618.001 256.333 616.232
C 262.616 613.493 268.775 609.354 273.218 604.094
C 277.858 598.601 280.805 591.613 283.303 584.949
C 285.655 578.677 288.082 572.428 290.505 566.183
C 293.144 559.379 295.61 552.508 298.283 545.718
C 299.203 543.381 300.068 541.004 300.88 538.628
C 301.015 538.234 302.167 534.977 302.157 534.974
C 299.261 535.141 296.167 534.421 293.269 534.214
C 286.347 533.719 279.028 533.462 272.127 534.426
C 266.093 535.269 260.141 535.994 254.23 537.585
C 236.695 542.304 219.695 552.439 210.46 568.522
C 207.847 573.073 206.768 577.631 205.412 582.598 Z"
opacity="1" fill="rgb(124,155,46)" fill-rule="evenodd" />
<path d="
M 382.379 615.807
C 386.192 615.659 390.166 615.623 393.902 614.779
C 395.781 614.355 397.692 613.826 399.43 612.981
C 400.822 612.304 402.228 611.466 403.361 610.403
C 409.167 604.959 406.225 597.442 403.952 591.133
C 401.402 584.053 398.735 576.983 395.966 569.986
C 394.241 565.629 392.123 561.185 390.951 556.658
C 397.039 555.288 402.915 554.633 408.692 551.989
C 412.462 550.264 415.541 547.448 419.175 545.594
C 419.75 547.172 419.63 549.251 420.032 550.933
C 421.049 555.193 422.434 559.385 423.944 563.494
C 427.899 574.263 433.349 584.396 439.393 594.12
C 443.001 599.924 446.388 606.503 452.078 610.596
C 456.107 613.494 460.826 614.746 465.678 615.427
C 467.617 615.7 470.318 615.393 472.089 616.221
C 472.079 617.075 472.37 618.986 471.853 619.732
C 454.979 618.816 437.9 619.437 421.003 619.405
C 412.877 619.389 404.753 619.465 396.635 619.53
C 391.99 619.568 387.157 619.309 382.538 619.81
C 381.908 619.087 382.42 616.761 382.379 615.807 Z"
opacity="1" fill="rgb(123,155,45)" fill-rule="evenodd" />
<path d="
M 586.977 581.302
C 588.486 581.273 594.685 580.697 592.284 583.231
C 587.228 586.978 582.422 591.223 576.811 594.176
C 573.639 595.846 570.367 597.005 566.877 597.806
C 554.839 600.567 542.821 592.899 534.178 585.306
C 530.986 582.502 528.327 579.11 524.947 576.522
C 520.914 579.761 517.337 583.477 513.103 586.484
C 498.452 596.89 481.011 602.907 463.158 597.617
C 447.895 593.096 438.799 580.169 432.646 566.224
C 428.413 556.631 426.277 545.924 429.377 535.695
C 433.357 522.567 444.832 513.279 456.243 506.663
C 459.241 504.925 462.673 502.793 465.982 501.76
C 466.142 500.905 464.154 498.52 463.685 497.726
C 461.557 494.119 459.578 490.465 457.996 486.58
C 453.248 474.926 450.243 461.357 454.918 449.16
C 463.904 425.714 494.587 418.873 515.579 430.109
C 518.554 431.701 521.212 433.745 523.552 436.169
C 535.61 448.654 528.549 467.051 517.261 477.236
C 510.275 483.54 502.073 489.524 493.718 493.895
C 495.146 496.688 497.253 499.203 499.088 501.743
C 502.636 506.65 506.345 511.458 510.101 516.214
C 515.181 522.648 520.25 529.055 525.465 535.379
C 529.015 539.682 532.472 544.236 536.473 548.137
C 537.388 547.419 537.823 546.143 538.368 545.144
C 539.692 542.713 541.021 540.266 542.237 537.779
C 545.701 530.696 549.261 523.3 551.061 515.59
C 552.105 511.118 552.097 506.263 549.208 502.443
C 546.981 499.498 543.086 497.904 539.564 497.194
C 537.32 496.742 534.864 496.781 532.938 495.455
C 532.595 494.349 533.821 492.685 534.25 491.645
C 542.321 492.109 550.421 492.376 558.506 492.33
C 565.941 492.287 572.908 492.123 579.648 488.585
C 586.694 484.886 592.815 479.663 598.892 474.598
C 600.389 473.35 601.864 471.966 603.538 470.957
C 604.098 470.619 604.804 470.157 605.438 470.441
C 605.516 474.252 600.83 477.682 598.274 480.036
C 593.372 484.551 588.277 488.792 583.001 492.859
C 580.057 495.128 576.735 496.974 573.987 499.487
C 568.438 504.559 565.02 511.311 561.705 517.938
C 558.481 524.385 555.165 530.795 552.023 537.281
C 550.174 541.097 548.199 544.885 546.191 548.62
C 545.067 550.711 543.486 552.925 542.785 555.193
C 543.158 555.958 544.205 556.565 544.78 557.223
C 547.001 559.765 549.451 562.111 551.833 564.499
C 561.22 573.911 572.475 584.632 586.977 581.302 Z
M 448.908 534.6
C 446.112 559.394 467.843 584.601 493.362 583.114
C 499.726 582.743 506.19 580.83 511.674 577.556
C 514.561 575.832 517.05 573.111 519.965 571.553
C 519.578 569.823 516.897 567.767 515.664 566.502
C 511.903 562.642 508.354 558.575 504.71 554.606
C 495.41 544.474 487.073 533.293 478.931 522.223
C 476.623 519.086 474.467 515.802 472.399 512.504
C 471.458 511.004 470.365 508.582 469.024 507.466
C 466.5 507.867 463.527 510.165 461.552 511.707
C 456.43 515.705 452.477 521.022 450.455 527.238
C 449.664 529.672 449.494 532.142 448.908 534.6 Z
M 474.444 447.098
C 473.501 456.531 477.152 465.019 481.371 473.23
C 484.079 478.5 486.991 483.722 490.447 488.54
C 491.543 488.302 492.588 487.367 493.474 486.702
C 495.626 485.087 497.779 483.498 499.755 481.662
C 507.609 474.366 511.82 464.21 511.433 453.488
C 511.214 447.414 509.766 441.244 505.565 436.621
C 499.007 429.405 486.463 428.151 479.424 435.493
C 476.276 438.777 475.328 442.823 474.444 447.098 Z"
opacity="1" fill="rgb(218,177,79)" fill-rule="evenodd" />
<path d="
M 592.284 583.231
C 594.685 580.697 588.486 581.273 586.977 581.302
C 586.15 579.651 586.754 576.348 586.74 574.504
C 586.702 569.004 586.744 563.503 586.741 558.002
C 586.734 544.502 586.746 531.002 586.743 517.502
C 586.741 510.756 586.025 503.545 586.877 496.852
C 593.519 491.702 600.386 486.915 606.581 481.191
C 609.16 478.808 612.21 476.272 614 473.21
C 616.827 468.375 612.859 463.223 607.88 462.865
C 604.551 462.625 601.535 464.289 598.8 465.988
C 595.6 467.975 592.857 470.597 590.1 473.137
C 588.969 474.18 587.781 475.685 586.46 476.459
C 587.127 473.755 586.609 470.275 586.577 467.495
C 586.518 462.328 586.564 457.158 586.564 451.99
C 586.564 446.308 586.491 440.633 586.419 434.953
C 586.315 426.795 586.725 417.099 579.628 411.385
C 578.159 410.203 576.444 409.292 574.706 408.57
C 572.175 407.519 569.428 406.842 566.708 406.52
C 563.625 406.154 560.058 405.545 556.962 405.878
C 556.501 405.16 557.138 402.869 557.076 401.963
C 557.509 401.438 559.8 401.8 560.506 401.803
C 563.673 401.82 566.839 401.829 570.006 401.873
C 582.835 402.048 595.673 401.927 608.504 401.919
C 618.504 401.913 628.504 401.918 638.504 401.93
C 646.758 401.94 655.265 401.8 663.424 403.207
C 674.58 405.131 685.229 409.286 694.521 415.776
C 700.486 419.942 705.672 425.088 709.448 431.329
C 720.24 449.164 718.748 473.813 705.658 490.086
C 695.315 502.943 679.316 509.848 664.18 515.178
C 665.429 516.839 666.372 518.74 667.633 520.42
C 676.726 532.537 686.367 544.242 695.445 556.377
C 703.138 566.66 710.771 577.006 718.948 586.912
C 727.223 596.937 735.74 609.308 748.633 613.689
C 756.285 616.289 764.188 616.145 771.997 614.348
C 794.172 609.244 811.406 591.082 815.89 568.825
C 820.551 545.697 810.304 521.814 790.915 508.689
C 765.902 491.757 734.222 492.865 707.106 503.589
C 701.194 505.926 695.478 508.755 690.097 512.146
C 687.51 513.776 684.435 516.741 681.407 517.39
C 680.725 516.289 682.663 514.922 683.372 514.313
C 686.044 512.021 688.946 510.016 691.899 508.102
C 704.403 500 717.709 493.921 732.42 491.1
C 761.292 485.563 791.932 493.545 811.123 516.52
C 814.629 520.717 817.595 525.547 819.828 530.538
C 822.273 536.004 824.038 541.739 824.72 547.705
C 825.73 556.531 824.94 565.168 822.851 573.785
C 820.786 582.305 816.833 590.137 811.536 597.099
C 802.019 609.607 787.489 618.67 772.315 622.458
C 762.228 624.976 751.561 624.874 741.264 624.1
C 729.094 623.185 715.345 620.194 705.268 612.925
C 698.302 607.9 693.536 600.387 688.474 593.583
C 680.835 583.315 672.882 573.281 665.236 563.019
C 655.073 549.378 645.124 535.263 634.177 522.242
C 632.932 520.761 631.404 518.651 629.563 517.886
C 627.777 517.144 625.291 517.599 623.394 517.58
C 622.026 517.566 619.764 517.033 618.702 517.989
C 618.785 532.447 618.323 546.959 618.715 561.407
C 618.267 562.171 617.142 562.757 616.484 563.368
C 614.837 564.895 613.152 566.365 611.474 567.856
C 606.002 572.718 600.237 577.829 594.278 582.079
C 593.599 582.438 592.919 582.799 592.284 583.231 Z
M 618.903 412.565
C 618.258 435.184 618.927 457.876 618.853 480.502
C 618.831 487.168 618.759 493.833 618.764 500.499
C 618.766 502.665 618.054 506.504 618.951 508.447
C 627.765 510.048 637.877 509.783 646.566 507.476
C 656.278 504.898 665.517 499.995 671.755 491.92
C 675.649 486.878 677.979 480.622 679.366 474.465
C 683.127 457.768 681.434 436.837 669.051 423.877
C 660.637 415.07 648.493 411.628 636.623 411.085
C 631.171 410.835 624.363 410.396 619.106 412.046
C 619.038 412.219 618.97 412.392 618.903 412.565 Z"
opacity="1" fill="rgb(125,156,47)" fill-rule="evenodd" />
<path d="
M 557.289 615.823
C 565.859 615.144 576.757 615.392 582.433 607.656
C 583.796 605.798 584.934 603.706 585.705 601.535
C 586.549 599.158 586.942 596.804 587.13 594.303
C 591.435 590.575 596.457 587.701 600.969 584.228
C 607.112 579.498 613.048 574.481 618.844 569.345
C 618.849 569.343 618.793 572.495 618.779 572.996
C 618.715 575.329 618.752 577.666 618.757 579.999
C 618.771 587.265 618.075 595.125 620.255 602.159
C 622.926 610.782 630.715 613.706 638.981 614.746
C 641.18 615.023 643.401 615.216 645.613 615.333
C 646.439 615.376 647.75 615.266 648.348 615.902
C 648.337 617.01 648.324 618.207 648.411 619.313
C 645.733 619.662 642.715 619.278 639.997 619.274
C 634 619.265 628.003 619.222 622.006 619.165
C 608.504 619.037 594.997 619.126 581.496 619.231
C 573.462 619.294 565.281 618.999 557.279 619.671
C 557.164 618.389 557.225 617.106 557.289 615.823 Z"
opacity="1" fill="rgb(125,157,47)" fill-rule="evenodd" />

</svg>