<svg xmlns="http://www.w3.org/2000/svg"
shape-rendering="geometricPrecision"
width="4000" height="4000" viewBox="0 0 1024 1024">
  <metadata>null</metadata>

<path d="
M 201.536 583.953
C 203.04 569.148 211.702 556.335 222.375 546.398
C 222.737 546.079 223.091 545.768 223.426 545.42
C 234.657 536.431 247.038 529.312 260.901 525.225
C 264.824 524.215 268.677 522.987 272.638 522.097
C 274.883 521.592 277.245 521.403 279.453 520.779
C 285.941 520.1 292.449 518.794 299.006 518.826
C 301.986 518.718 304.988 518.997 307.96 518.859
C 308.545 518.175 308.73 516.939 309.082 516.107
C 310.161 513.554 311.275 510.99 312.205 508.379
C 316.336 496.064 321.732 484.086 326.293 471.923
C 329.074 465.432 331.624 458.664 334.005 452.01
C 334.778 450.62 335.364 448.949 335.833 447.43
C 337.421 442.682 339.927 438.24 341.428 433.467
C 342.983 430.596 343.901 427.235 345.13 424.207
C 348.861 415.01 352.103 405.339 356.447 396.422
C 357.488 396.369 358.511 396.386 359.549 396.371
C 360.262 396.543 360.576 397.421 360.885 398.092
C 361.729 399.928 362.424 401.838 363.195 403.706
C 365.248 408.681 367.338 413.651 369.344 418.645
C 370.253 420.908 370.917 423.538 372.186 425.624
C 372.919 428.187 374.196 431.993 375.784 434.134
C 376.064 436.061 377.219 438.041 378.007 439.809
C 379.098 442.259 379.963 444.809 381.057 447.258
C 381.692 448.677 382.066 451.034 383.158 452.126
C 383.735 454.611 384.984 457.016 385.959 459.369
C 387.653 463.459 389.306 467.564 390.996 471.656
C 392.72 475.829 394.391 480.026 396.093 484.209
C 396.935 486.28 397.555 488.751 398.744 490.64
C 399.807 494.528 401.873 498.352 403.381 502.095
C 406.651 510.207 410 518.293 412.969 526.516
C 412.664 526.991 411.807 527.267 411.29 527.543
C 409.581 528.457 407.84 529.162 405.996 529.761
C 399.017 532.027 391.713 530.608 385.117 527.809
C 383.046 526.93 380.588 526.197 378.851 524.727
C 375.719 520.704 375.719 514.729 373.002 510.501
C 372.742 509.645 372.606 508.705 372.001 508.013
C 371.527 506.109 370.603 504.345 369.893 502.526
C 368.206 498.211 366.61 493.834 364.808 489.566
C 362.341 481.779 358.963 474.025 355.904 466.448
C 352.903 459.015 350.588 451.216 347.201 443.951
C 344.436 453.396 339.549 462.307 337.107 471.847
C 333.51 484.107 326.987 495.571 323.656 507.893
C 322.661 510.685 321.56 513.46 320.507 516.231
C 320.114 517.266 319.37 518.518 319.281 519.606
C 324.479 519.386 329.785 520.45 334.943 520.994
C 338.436 521.702 341.998 522.112 345.498 522.81
C 348.505 523.409 351.516 524.352 354.538 524.804
C 361.307 526.042 367.914 528.553 374.51 530.467
C 386.286 534.047 397.814 538.821 410.378 537.052
C 413.756 536.577 417.125 535.482 420.192 533.993
C 421.691 533.266 423.725 531.512 425.347 531.3
C 424.009 535.517 418.825 539.303 415.491 541.954
C 408.706 547.35 400.854 551.73 392.09 552.67
C 385.871 553.338 379.666 552.225 373.551 551.243
C 371.292 551.029 368.861 550.033 366.673 549.415
C 362.033 548.105 357.446 546.597 352.853 545.13
C 345.647 542.829 338.155 541.028 330.764 539.434
C 326.418 538.497 321.995 537.378 317.552 537.032
C 316.046 536.741 314.559 536.564 313.02 536.525
C 310.955 540.368 309.837 544.842 308.345 548.942
C 306.299 554.568 304.027 560.127 302.141 565.798
C 300.402 568.753 299.671 572.491 298.419 575.677
C 294.566 585.482 288.222 599.448 296.338 608.881
C 299.425 612.469 304.384 614.209 308.98 614.656
C 310.804 614.834 312.626 615.04 314.45 615.201
C 315.167 615.264 316.351 615.079 316.354 615.973
C 316.292 617.095 316.335 618.244 316.338 619.368
C 314.755 619.433 313.103 619.203 311.511 619.164
C 303.679 619.028 295.833 619.273 288.01 619.039
C 279.509 618.783 270.574 618.181 262.103 619.099
C 256.427 619.714 251.306 621.975 245.774 623.213
C 240.191 624.463 233.809 624.21 228.274 622.857
C 214.278 619.437 203.822 608.231 201.639 594.046
C 201.14 590.803 200.881 587.198 201.536 583.953 Z
M 221.759 554.736
C 218.593 557.369 215.35 560.757 213.135 564.238
C 209.849 567.978 207.384 573.589 206.241 578.392
C 205.906 579.801 205.019 582.072 205.692 583.434
C 204.946 584.961 205.106 587.004 205.12 588.664
C 205.161 593.468 206.263 598.482 208.796 602.622
C 211.841 608.486 217.829 613.687 223.977 616.052
C 229.192 619.144 235.525 620.241 241.495 620.295
C 246.867 620.313 251.793 618.432 256.584 616.119
C 258.36 615.261 260.358 614.589 261.879 613.289
C 266.14 611.068 271.054 607.321 273.831 603.364
C 279.182 597.15 281.962 588.523 284.76 580.967
C 286.717 575.681 289.398 570.367 290.877 564.941
C 291.317 562.974 292.492 560.93 293.237 559.038
C 294.952 554.683 296.672 550.312 298.28 545.919
C 298.963 544.541 299.274 542.91 299.779 541.454
C 300.331 539.845 300.966 538.248 301.579 536.662
C 301.651 536.476 302.248 535.011 302.144 534.962
C 294.756 534.798 287.401 533.286 279.984 534.042
C 273.656 533.593 267.194 534.875 260.968 535.837
C 246.91 538.778 232.172 544.505 221.759 554.736 Z"
opacity="1" fill="rgb(123,154,45)" fill-rule="evenodd" />
<path d="
M 391.474 614.941
C 398.558 614.311 406.189 611.01 406.833 603.01
C 406.899 596.485 403.643 590.554 401.432 584.534
C 400.083 579.743 397.848 575.038 396.09 570.374
C 394.342 565.739 392.974 560.814 390.793 556.369
C 397.484 555.868 404.118 554.183 410.131 551.183
C 412.391 550.055 414.491 548.663 416.62 547.315
C 417.419 546.809 418.491 545.895 419.434 545.789
C 419.052 553.088 422.959 561.08 425.683 567.677
C 429.357 576.579 433.821 584.982 438.85 593.192
C 443.503 600.79 448.042 609.069 456.518 612.964
C 459.988 614.558 463.733 615.12 467.495 615.495
C 468.974 615.652 470.491 615.732 471.96 615.938
C 471.863 616.821 472.485 619.74 471.528 620.016
C 468.638 619.187 464.952 619.664 461.952 619.613
C 455.468 619.502 448.974 619.206 442.494 619.479
C 438.316 619.179 434.154 619.404 429.993 619.568
C 423.201 619.835 416.317 619.158 409.499 619.507
C 400.749 617.987 391.444 620.674 382.633 619.667
C 382.476 618.374 382.432 617.121 382.412 615.816
C 385.394 615.229 388.53 615.691 391.474 614.941 Z"
opacity="1" fill="rgb(124,155,45)" fill-rule="evenodd" />
<path d="
M 428.489 539.907
C 428.638 538.898 428.89 537.899 429.119 536.905
C 429.913 532.119 432.555 527.721 435.456 523.915
C 440.025 517.919 445.889 512.493 452.408 508.649
C 456.762 506.082 461.479 504.232 465.909 501.855
C 465.907 501 464.82 499.731 464.416 498.956
C 462.956 496.152 461.19 493.432 459.901 490.549
C 457.639 483.646 454.184 477.407 453.223 470.038
C 452.416 463.85 452.519 458.025 453.939 451.934
C 458.544 437.482 470.587 428.069 485.422 425.563
C 491.62 424.291 497.827 425.072 504 425.889
C 514.783 429.008 526.511 434.441 529.331 446.51
C 529.74 448.262 530.395 450.718 530.107 452.462
C 529.507 456.42 528.935 460.08 527.258 463.772
C 520.832 477.915 506.253 485.93 493.706 493.823
C 497.404 499.866 502.003 505.291 506.18 510.992
C 511.457 518.195 516.877 525.337 522.677 532.127
C 525.788 535.769 528.788 539.493 531.958 543.088
C 533.377 544.698 534.84 546.676 536.526 547.996
C 538.262 547.262 539.67 543.08 540.284 541.424
C 542.7 536.95 545.027 532.184 546.788 527.414
C 548.818 520.887 551.572 515.561 551.392 508.543
C 550.969 503.557 547.845 499.838 543.064 498.324
C 540.391 497.377 537.589 497.289 534.903 496.511
C 533.973 496.242 533.425 495.549 532.615 495.097
C 532.969 493.772 533.783 492.528 534.241 491.207
C 542.428 492.034 550.572 492.245 558.802 492.286
C 565.295 492.318 572.059 492.291 578.027 489.38
C 584.867 486.044 590.592 481.262 596.373 476.414
C 598.9 474.294 602.101 470.424 605.587 470.226
C 606.288 473.203 601.873 476.554 600.037 478.4
C 595.883 482.578 591.448 486.736 586.686 490.217
C 583.949 492.218 580.866 493.995 578.299 496.199
C 574.931 498.343 571.412 501.415 569.147 504.728
C 565.793 508.33 563.742 513.9 561.507 518.244
C 556.696 527.591 552.117 537.073 547.253 546.382
C 545.795 549.296 543.773 552.008 542.664 555.086
C 544.778 558.502 548.637 561.377 551.472 564.208
C 560.193 572.916 569.89 582.068 582.978 581.656
C 583.959 581.618 586.271 581.792 586.934 580.981
C 588.429 580.565 590.471 580.55 591.956 581.053
C 592.568 581.26 593.357 582.321 593.851 582.302
C 590.431 585.18 586.576 587.768 582.841 590.219
C 581.389 591.172 579.621 592.038 578.322 593.167
C 575.592 594.502 572.997 596.093 570.098 597.053
C 563.366 599.283 556.611 598.258 550.116 595.816
C 546.87 594.595 544.286 592.048 541.148 590.787
C 538.841 588.388 535.687 585.983 533.014 583.977
C 530.767 581.226 527.961 578.852 525.496 576.304
C 523.037 576.923 520.794 580.333 518.906 581.929
C 516.003 584.383 512.886 586.596 509.693 588.654
C 507.942 589.783 505.846 590.795 504.292 592.174
C 500.249 593.994 496.512 596.236 492.221 597.544
C 481.796 600.724 469.76 600.518 459.628 596.386
C 455.083 594.533 451.593 591.584 447.634 588.848
C 445.355 585.877 442.655 583.297 440.459 580.205
C 435.48 573.196 432.021 565.219 429.778 556.951
C 428.294 551.482 427.416 545.54 428.489 539.907 Z
M 465.329 509.17
C 457.945 513.451 452.83 519.811 450.381 527.977
C 449.351 532.485 448.666 536.721 448.913 541.382
C 448.986 542.757 448.861 544.887 449.833 545.965
C 449.441 547.819 450.26 550.077 450.775 551.86
C 452.17 556.688 454.678 562.559 458.302 566.16
C 460.039 568.726 463.096 572.224 465.896 573.648
C 467.175 575.092 469.223 576.167 470.874 577.137
C 475.53 579.871 481.098 582.301 486.551 582.69
C 492.361 583.493 500.259 583.532 505.448 580.329
C 510.98 578.336 515.289 574.772 519.99 571.39
C 519.367 569.634 517.119 567.492 515.641 566.441
C 514.572 564.351 512.302 562.72 510.709 561.018
C 508.136 558.271 505.823 554.957 502.991 552.492
C 502.038 551.114 500.87 549.515 499.519 548.508
C 497.883 545.616 495.141 543.124 493.063 540.521
C 488.37 534.64 483.552 528.738 479.263 522.554
C 476.782 518.979 474.307 515.407 471.898 511.781
C 470.988 510.412 470.144 508.205 468.893 507.172
C 467.727 507.874 466.517 508.506 465.329 509.17 Z
M 474.844 451.88
C 473.698 454.057 474.918 457.481 475.584 459.682
C 477.617 466.406 480.553 473.179 484.358 479.105
C 486.092 482.193 488.089 486.016 490.377 488.689
C 495.461 485.159 500.704 481.5 504.38 476.422
C 510.086 469.813 511.527 460.431 511.313 452.009
C 510.9 445.35 508.493 437.669 502.584 433.886
C 498.369 430.549 492.473 430.015 487.412 431.118
C 480.527 432.762 475.753 438.724 474.663 445.566
C 474.445 446.934 473.593 450.868 474.844 451.88 Z"
opacity="1" fill="rgb(216,175,78)" fill-rule="evenodd" />
<path d="
M 577.501 401.755
C 583.826 401.746 590.177 401.94 596.499 401.774
C 602.654 401.886 608.844 401.882 614.999 401.783
C 633.219 401.819 652.141 400.331 670.013 404.426
C 679.641 406.8 688.282 411.27 696.271 417.058
C 701.65 420.956 707.004 425.964 709.935 432.043
C 710.107 432.378 710.295 432.701 710.468 433.034
C 713.418 439.065 715.672 445.25 716.445 451.976
C 716.906 457.947 716.463 463.581 715.374 469.455
C 712.167 488.315 695.072 502.197 678.548 509.445
C 673.938 511.467 669.12 513.997 664.18 515.081
C 667.846 519.477 670.496 524.838 674.443 529.065
C 681.454 538.418 689.014 547.377 695.997 556.763
C 699.098 560.932 702.261 565.057 705.33 569.249
C 706.766 571.211 708.057 573.467 709.814 575.162
C 712.196 578.696 715.074 582.409 717.935 585.568
C 721.679 590.595 725.897 596.246 730.447 600.557
C 730.765 600.912 731.09 601.241 731.441 601.564
C 735.119 605.739 741.09 610.864 746.441 612.616
C 747.584 613.352 749.102 613.668 750.392 614.07
C 754.919 615.479 759.781 615.864 764.489 615.404
C 769.618 614.864 774.456 613.845 779.262 611.925
C 780.93 611.259 783.06 610.623 784.458 609.481
C 785.888 609.052 787.088 608.172 788.391 607.466
C 791.168 605.961 794.316 604.331 796.48 601.985
C 798.818 600.485 800.617 598.073 802.485 596.061
C 805.695 592.906 808.417 588.466 810.274 584.39
C 813.168 578.117 815.615 571.875 816.412 564.951
C 817.366 558.687 816.55 552.749 815.881 546.531
C 815.544 542.152 813.708 537.444 811.944 533.461
C 804.029 515.6 787.325 503.421 768.581 498.696
C 761.746 496.986 753.545 494.449 746.425 495.721
C 740.575 495.365 734.129 495.72 728.44 497.266
C 725.8 497.233 722.949 498.555 720.411 499.207
C 713.427 501.005 705.539 503.408 699.295 507.079
C 696.53 508.199 692.935 510.04 690.717 512.046
C 688.253 513.271 686.118 515.157 683.749 516.561
C 683.272 516.843 681.749 518.126 681.377 517.603
C 680.968 515.116 685.274 512.697 687.01 511.455
C 693.615 506.726 700.802 501.784 708.385 498.763
C 720.856 493.758 733.41 489.646 746.997 489.31
C 754.767 489.359 762.421 489.57 770.033 491.349
C 774.994 492.509 779.597 494.647 784.46 496.08
C 787.676 498.088 791.32 499.485 794.564 501.525
C 797.466 503.35 799.976 505.928 802.915 507.623
C 804.584 509.663 806.815 511.295 808.568 513.295
C 813.043 518.4 816.84 524.053 819.789 530.172
C 821.282 533.271 822.337 536.586 823.183 539.912
C 823.668 541.822 823.824 544.213 824.774 545.942
C 824.554 548.666 825.167 551.437 825.203 554.171
C 825.25 557.788 824.705 561.364 824.736 564.974
C 824.025 575.73 819.029 586.864 812.792 595.48
C 810.792 598.242 808.277 600.511 806.17 603.157
C 804.798 604.194 803.493 605.474 802.269 606.681
C 795.214 612.114 788.389 616.877 779.968 620.063
C 776.744 621.282 773.49 622.184 770.138 622.971
C 768.513 623.353 766.374 623.366 764.951 624.259
C 763.888 623.517 761.836 624.16 760.611 624.217
C 757.288 624.373 753.958 624.341 750.633 624.364
C 749.3 624.373 747.487 623.994 746.376 624.824
C 746.27 623.851 743.272 624.186 742.394 624.13
C 737.92 623.848 733.525 623.009 729.08 622.519
C 727.249 621.738 725.06 621.41 723.134 620.791
C 716.321 618.601 709.407 616.234 703.695 611.782
C 699.583 608.577 696.546 604.275 693.601 600.039
C 691.279 596.7 688.596 593.603 686.143 590.361
C 684.298 587.923 682.589 585.234 680.533 582.973
C 677.937 579.357 675.049 575.948 672.359 572.401
C 670.766 570.3 669.321 567.892 667.507 565.982
C 662.761 558.68 656.912 551.856 651.583 544.971
C 646.247 538.078 641.476 530.567 635.67 524.056
C 633.86 522.026 632.185 518.735 629.558 517.665
C 627.877 516.98 625.196 517.408 623.412 517.382
C 622.13 517.364 619.749 516.959 618.671 517.664
C 618.555 520.911 618.595 524.217 618.768 527.462
C 618.44 533.772 618.693 540.171 618.787 546.471
C 618.384 549.986 618.726 553.664 618.689 557.201
C 618.675 558.561 618.97 560.373 618.524 561.663
C 617.824 562.051 617.201 562.536 616.677 563.142
C 611.294 567.355 606.121 572.076 600.921 576.532
C 598.661 578.468 596.359 580.7 593.851 582.302
C 593.357 582.321 592.568 581.26 591.956 581.053
C 590.471 580.55 588.429 580.565 586.934 580.981
C 586.115 577.007 586.754 572.091 586.756 568.019
C 586.76 560.883 586.282 553.633 586.741 546.512
C 586.517 540.52 586.805 534.501 586.718 528.506
C 586.653 522.011 586.708 515.507 586.74 509.011
C 586.751 504.909 586.451 500.572 586.976 496.5
C 593.813 491.696 600.574 486.67 606.758 481.033
C 609.551 478.486 613.079 475.585 614.453 471.959
C 616.733 465.945 610.733 462.191 605.477 462.851
C 598.916 463.675 593.886 469.867 589.163 473.899
C 588.663 474.31 587.349 476.162 586.828 475.718
C 586.606 474.485 586.631 473.257 586.646 472.01
C 586.537 465.539 586.999 458.943 586.485 452.493
C 587.221 446.357 586.435 439.701 586.412 433.514
C 586.305 429.555 586.571 425.541 585.586 421.663
C 585.089 419.704 584.325 417.874 583.355 416.107
C 578.532 407.319 568.154 406.038 559.035 405.968
C 558.803 405.941 557.734 405.975 557.55 405.868
C 557.018 405.556 557.361 402.554 557.327 401.957
C 558.977 401.078 561.757 401.665 563.592 401.69
C 568.225 401.753 572.872 401.602 577.501 401.755 Z
M 618.883 432.528
C 619.239 439.247 619.006 446.267 618.896 452.999
C 618.814 457.068 618.845 461.135 618.876 465.205
C 618.887 466.753 618.486 469.067 619.295 470.436
C 618.532 472.016 618.919 474.345 618.871 476.067
C 618.745 480.542 618.808 485.002 618.881 489.476
C 618.783 495.743 618.754 502.008 618.749 508.277
C 624.013 509.485 630.127 509.497 635.495 508.945
C 639.496 508.919 643.321 508.212 647.176 507.192
C 648.878 506.742 650.952 506.322 652.462 505.415
C 668.021 500.607 677.59 486.506 680.102 470.999
C 681.474 465.457 681.504 458.666 680.915 453.019
C 679.163 435.822 670.473 419.393 653.02 413.947
C 648.689 412.811 644.579 411.491 640.043 411.393
C 634.896 410.596 629.671 411.066 624.5 411.27
C 622.921 411.332 619.946 411.125 618.826 412.395
C 618.829 419.102 618.692 425.824 618.883 432.528 Z"
opacity="1" fill="rgb(124,155,46)" fill-rule="evenodd" />
<path d="
M 558.969 615.459
C 564.866 615.191 573.125 615.551 577.934 611.477
C 580.882 610.014 583.431 606.832 584.736 603.867
C 586.168 600.578 586.843 597.263 587.57 593.779
C 588.876 592.279 590.946 591.276 592.573 590.136
C 595.439 588.128 598.302 586.131 601.094 584.019
C 604.952 581.1 608.765 578.08 612.437 574.926
C 614.467 573.182 616.451 571.127 618.735 569.721
C 619.026 574.449 618.678 579.23 618.86 583.969
C 618.78 588.531 618.812 593.03 619.213 597.58
C 619.373 599.403 619.582 602.159 620.736 603.637
C 622.46 609.608 628.681 612.179 634.06 613.717
C 638.818 614.505 643.414 614.996 648.238 615.182
C 648.613 615.739 648.745 619.357 648.003 619.326
C 642.207 618.928 636.321 619.271 630.512 619.227
C 620.166 619.149 609.851 619.01 599.512 619.056
C 586.283 619.115 572.67 618.421 559.477 619.726
C 558.805 619.758 559.136 619.731 558.484 619.804
C 558.177 619.846 557.842 620.064 557.563 619.931
C 557.123 619.722 557.323 616.351 557.557 616.037
C 557.752 615.776 558.619 615.55 558.969 615.459 Z"
opacity="1" fill="rgb(125,156,46)" fill-rule="evenodd" />

</svg>